<?xml version="1.0" encoding="UTF-8"?><svg id="a" xmlns="http://www.w3.org/2000/svg" viewBox="0 0 932 935"><defs><style>.b{fill:#fff;}.c{fill:#002ed9;}</style></defs><rect class="c" x="0" y="1.5" width="932" height="932" rx="104.23" ry="104.23"/><g><path class="b" d="M242.11,259.89h80.25v407.07h-80.25V259.89Z"/><path class="b" d="M614.87,259.89h75.02v407.07h-75.02v-34.31c-22.1,28.5-53.5,42.45-94.21,42.45s-72.69-14.54-100.6-44.2c-27.33-29.66-41.29-66.29-41.29-109.33s13.96-79.09,41.29-108.75c27.91-29.66,61.64-44.78,100.6-44.78s72.11,13.96,94.21,42.45v-150.62Zm-80.25,343.68c23.26,0,42.45-7.56,57.57-22.68,15.12-15.7,22.68-35.47,22.68-59.32s-7.56-43.61-22.68-58.73c-15.12-15.7-34.31-23.26-57.57-23.26s-42.45,7.56-58.15,23.26-22.68,34.89-22.68,58.73,7.56,43.61,22.68,59.32c15.7,15.12,34.89,22.68,58.15,22.68Z"/></g></svg>