<?xml version="1.0" encoding="UTF-8"?><svg id="a" xmlns="http://www.w3.org/2000/svg" viewBox="0 0 932 935"><defs><style>.b{fill:#fff;}.c{fill:#002ed9;}</style></defs><rect class="c" x=".33" y="1.8" width="932" height="932" rx="104.23" ry="104.23"/><g><path class="b" d="M347.7,260.19c38.96,0,72.11,13.38,98.86,39.54,26.75,26.17,40.13,58.73,40.13,97.12s-13.38,70.95-40.13,97.12c-26.75,26.17-59.9,39.54-98.86,39.54h-71.53v133.75h-80.25V260.19h151.78Zm0,198.3c34.31,0,59.32-26.75,59.32-61.64s-25.01-61.64-59.32-61.64h-71.53v123.28h71.53Z"/><path class="b" d="M639.63,491.06c42.45,8.72,97.7,29.08,97.12,91.3,0,29.66-11.05,52.92-33.73,69.2-22.1,15.7-50.01,23.84-83.16,23.84-59.9,0-100.6-23.26-122.12-69.2l65.13-36.64c8.72,25,27.33,37.8,56.99,37.8,26.75,0,40.12-8.14,40.12-25.01,0-15.7-23.26-24.42-52.92-31.98-43.03-11.05-97.12-29.08-97.12-89.56,0-28.49,10.47-51.17,31.4-67.46,21.52-16.86,47.69-25.01,79.09-25.01,47.1,0,87.81,22.1,110.49,61.64l-63.97,34.89c-9.3-19.77-25.01-29.66-46.52-29.66-19.19,0-33.73,9.3-33.73,23.84,0,15.7,23.26,24.42,52.92,31.98Z"/></g></svg>