<?xml version="1.0" encoding="UTF-8"?><svg id="a" xmlns="http://www.w3.org/2000/svg" viewBox="0 0 932 935"><defs><style>.b{fill:#fff;}.c{fill:#002ed9;}</style></defs><rect class="c" x="0" y="1.5" width="932" height="932" rx="104.23" ry="104.23"/><g><path class="b" d="M410.46,666.96l-24.42-73.27H223.79l-24.42,73.27H112.72L255.19,259.89h99.44l143.06,407.07h-87.23Zm-161.08-148.29h111.65l-55.83-166.32-55.83,166.32Z"/><path class="b" d="M597.14,552.4c9.89,36.64,37.22,54.66,82,54.66,28.49,0,50.59-9.89,65.13-29.08l60.48,34.89c-28.49,41.29-70.95,62.22-126.77,62.22-48.27,0-86.65-14.54-115.72-43.62s-43.61-65.71-43.61-109.91,14.54-80.25,43.03-109.33c28.5-29.66,65.71-44.2,110.49-44.2,42.45,0,77.92,14.54,105.26,44.2,27.91,29.66,41.87,65.71,41.87,109.33,0,9.89-1.16,19.77-2.91,30.82h-219.24Zm147.13-58.15c-8.72-39.54-37.8-58.73-72.11-58.73-40.13,0-67.46,21.52-76.18,58.73h148.29Z"/></g></svg>